# Blender v2.82 (sub 7) OBJ File: ''
# www.blender.org
mtllib IPSC_paper.mtl
o stand_geometry11.002
v -0.137977 0.000639 -0.013427
v -0.137977 0.000639 0.015373
v 0.137977 0.025839 -0.013427
v 0.137977 0.000639 -0.013427
v 0.137977 0.000639 0.015373
v 0.137977 0.025839 0.015373
v 0.032400 0.025839 0.015373
v -0.032400 0.000639 0.015373
v -0.032400 0.025839 0.015373
v -0.032400 0.525370 0.015373
v -0.032400 0.525370 -0.013427
v 0.032400 0.525370 0.015373
v 0.032400 0.525370 -0.013427
v -0.032400 0.025839 -0.013427
v 0.137977 0.025839 -0.038627
v 0.137977 0.000639 0.040573
v 0.137977 0.025839 0.144973
v 0.163177 0.000639 0.144973
v 0.163177 0.025839 -0.143027
v 0.163177 0.000639 -0.143027
v 0.137977 0.025839 -0.143027
v -0.137977 0.025839 -0.038627
v -0.137977 0.000639 -0.143027
v -0.137977 0.025839 -0.143027
v -0.137977 0.000639 -0.038627
v -0.137977 0.025839 0.144973
v -0.137977 0.000639 0.144973
v 0.032400 0.000639 -0.013427
v -0.163177 0.000639 0.144973
v -0.137977 0.000639 0.040573
v 0.032400 0.000639 0.015373
v 0.137977 0.000639 -0.038627
v 0.137977 0.000639 0.144973
v 0.137977 0.000639 -0.143027
v -0.163177 0.000639 -0.143027
v -0.032400 0.000639 -0.013427
v 0.137977 0.025839 0.040573
v 0.163177 0.025839 0.144973
v -0.137977 0.025839 0.015373
v -0.137977 0.025839 0.040573
v -0.163177 0.025839 0.144973
v -0.137977 0.025839 -0.013427
v -0.163177 0.025839 -0.143027
v 0.032400 0.025839 -0.013427
vt 0.000000 0.000000
vt 25.200001 104.400002
vt 25.200001 0.000000
vt 0.000000 183.600006
vt 25.200001 288.000000
vt 25.200001 183.600006
vt 1507.859985 754.706055
vt 1533.059937 1030.660034
vt 1507.859985 1030.660034
vt 1533.059937 1030.660034
vt 1507.859985 925.083069
vt 1507.859985 1030.660034
vt 1507.859985 -860.283020
vt 1533.059937 -754.706055
vt 1533.059937 -860.283020
vt 459.931030 0.000000
vt 434.731018 28.800001
vt 459.931030 28.800001
vt 25.200001 0.000000
vt 524.731018 28.800001
vt 524.731018 0.000000
vt 1008.329956 860.283020
vt 1008.329956 925.083069
vt 25.200001 28.800001
vt 0.000000 0.000000
vt 0.000000 28.800001
vt 1507.859985 925.083069
vt 1008.329956 860.283020
vt 1008.329956 925.083069
vt -10.800000 0.000000
vt 54.000000 28.800001
vt 54.000000 0.000000
vt 0.000000 0.000000
vt 25.200001 104.400002
vt 25.200001 0.000000
vt 25.200001 0.000000
vt 0.000000 288.000000
vt 25.200001 288.000000
vt 1507.859985 1030.660034
vt 1533.059937 1055.859985
vt 1507.859985 1055.859985
vt 25.200001 129.600006
vt 0.000000 158.400009
vt 25.200001 158.400009
vt 0.000000 129.600006
vt 25.200001 158.400009
vt 25.200001 129.600006
vt -0.000001 -0.000003
vt 0.000001 -25.200001
vt -25.200001 104.400002
vt 1507.859985 729.506104
vt 1533.059937 754.706055
vt 1507.859985 754.706055
vt -64.800011 0.000000
vt -64.800011 28.800001
vt 275.954010 -25.200001
vt 275.954010 -0.000003
vt 301.154022 104.400002
vt 1507.859985 -1030.660034
vt 1533.059937 -925.083069
vt 1533.059937 -1030.660034
vt 0.000000 0.000000
vt 25.200001 288.000000
vt 25.200001 0.000000
vt 301.154022 -183.600006
vt 275.954010 -79.200005
vt 275.954010 -54.000000
vt 1507.859985 754.706055
vt 1533.059937 860.283020
vt 1533.059937 754.706055
vt -0.000001 -79.200005
vt 0.000001 -54.000000
vt 105.577003 -54.000000
vt 275.954010 -0.000003
vt 275.954010 -25.200001
vt 170.377014 -25.200001
vt 105.577003 -25.200001
vt 170.377014 -54.000000
vt -25.200001 104.400002
vt -0.000001 -0.000003
vt 0.000001 -25.200001
vt 0.000000 0.000000
vt 0.000000 0.000000
vt 0.000000 0.000000
vt 1507.859985 729.506104
vt 1533.059937 754.706055
vt 1533.059937 729.506104
vt 0.000000 183.600006
vt 25.200001 288.000000
vt 25.200001 183.600006
vt 275.954010 -79.200005
vt -0.000001 -79.200005
vt 170.377014 -54.000000
vt 1533.059937 -754.706055
vt 1507.859985 -1030.660034
vt 1533.059937 -1030.660034
vt 105.577003 -25.200001
vt 170.377014 -25.200001
vt 0.000000 104.400002
vt 0.000000 288.000000
vt 1533.059937 754.706055
vt 1533.059937 925.083069
vt 1507.859985 -754.706055
vt 434.731018 0.000000
vt 1507.859985 860.283020
vt 1507.859985 860.283020
vt -10.800000 28.800001
vt 0.000000 104.400002
vt 0.000000 0.000000
vt 1533.059937 1030.660034
vt 0.000000 129.600006
vt 0.000000 158.400009
vt -25.200001 -183.600006
vt 0.000001 -183.600006
vt 0.000001 104.400002
vt 1533.059937 729.506104
vt 275.954010 -54.000000
vt 301.154022 -183.600006
vt 275.954010 104.400002
vt 275.954010 -183.600006
vt 1507.859985 -925.083069
vt 0.000000 288.000000
vt 301.154022 104.400002
vt 275.954010 104.400002
vt 275.954010 -183.600006
vt 0.000001 -54.000000
vt -25.200001 -183.600006
vt 0.000001 -183.600006
vt 0.000001 104.400002
vt 0.000000 0.000000
vt 1507.859985 754.706055
vt 0.000000 288.000000
vt 105.577003 -54.000000
vt 1507.859985 -754.706055
vn 1.0000 0.0000 0.0000
vn -1.0000 0.0000 0.0000
vn -0.0000 0.0000 1.0000
vn 0.0000 0.0000 -1.0000
vn 0.0000 1.0000 0.0000
vn 0.0000 -1.0000 -0.0000
usemtl dark.002
s off
f 27/1/1 40/2/1 26/3/1
f 15/4/2 34/5/2 32/6/2
f 40/7/3 16/8/3 37/9/3
f 5/10/4 7/11/4 6/12/4
f 14/13/3 1/14/3 36/15/3
f 8/16/2 14/17/2 36/18/2
f 7/19/1 13/20/1 12/21/1
f 10/22/3 7/11/3 12/23/3
f 44/24/1 31/25/1 28/26/1
f 44/27/4 11/28/4 13/29/4
f 12/30/5 11/31/5 10/32/5
f 17/33/2 16/34/2 33/35/2
f 38/36/1 20/37/1 19/38/1
f 17/39/3 18/40/3 38/41/3
f 5/42/2 3/43/2 4/44/2
f 2/45/1 42/46/1 39/47/1
f 25/48/6 1/49/6 35/50/6
f 41/51/3 27/52/3 26/53/3
f 14/17/2 10/54/2 11/55/2
f 42/56/5 22/57/5 43/58/5
f 3/59/3 28/60/3 4/61/3
f 41/62/2 35/63/2 29/64/2
f 18/65/6 16/66/6 5/67/6
f 39/68/4 8/69/4 2/70/4
f 30/71/6 2/72/6 8/73/6
f 32/74/6 4/75/6 28/76/6
f 36/77/6 31/78/6 8/73/6
f 19/79/5 15/80/5 3/81/5
f 19/82/4 34/83/4 21/84/4
f 43/85/4 23/86/4 35/87/4
f 25/88/1 24/89/1 22/90/1
f 40/91/5 37/92/5 9/93/5
f 25/94/4 15/95/4 32/96/4
f 44/97/5 22/57/5 14/98/5
f 27/1/1 30/99/1 40/2/1
f 15/4/2 21/100/2 34/5/2
f 40/7/3 30/101/3 16/8/3
f 5/10/4 31/102/4 7/11/4
f 14/13/3 42/103/3 1/14/3
f 8/16/2 9/104/2 14/17/2
f 7/19/1 44/24/1 13/20/1
f 10/22/3 9/105/3 7/11/3
f 44/24/1 7/19/1 31/25/1
f 44/27/4 14/106/4 11/28/4
f 12/30/5 13/107/5 11/31/5
f 17/33/2 37/108/2 16/34/2
f 38/36/1 18/109/1 20/37/1
f 17/39/3 33/110/3 18/40/3
f 5/42/2 6/111/2 3/43/2
f 2/45/1 1/112/1 42/46/1
f 1/49/6 2/72/6 29/113/6
f 2/72/6 30/71/6 29/113/6
f 30/71/6 27/114/6 29/113/6
f 29/113/6 35/50/6 1/49/6
f 35/50/6 23/115/6 25/48/6
f 41/51/3 29/116/3 27/52/3
f 14/17/2 9/104/2 10/54/2
f 40/91/5 39/117/5 41/118/5
f 39/117/5 42/56/5 43/58/5
f 22/57/5 24/119/5 43/58/5
f 26/120/5 40/91/5 41/118/5
f 39/117/5 43/58/5 41/118/5
f 3/59/3 44/121/3 28/60/3
f 41/62/2 43/122/2 35/63/2
f 4/75/6 32/74/6 20/123/6
f 32/74/6 34/124/6 20/123/6
f 4/75/6 20/123/6 18/65/6
f 18/65/6 33/125/6 16/66/6
f 5/67/6 4/75/6 18/65/6
f 39/68/4 9/105/4 8/69/4
f 8/73/6 31/78/6 16/66/6
f 31/78/6 5/67/6 16/66/6
f 16/66/6 30/71/6 8/73/6
f 28/76/6 36/77/6 25/48/6
f 36/77/6 1/49/6 25/48/6
f 25/48/6 32/74/6 28/76/6
f 36/77/6 28/76/6 31/78/6
f 6/126/5 37/92/5 38/127/5
f 37/92/5 17/128/5 38/127/5
f 6/126/5 38/127/5 19/79/5
f 19/79/5 21/129/5 15/80/5
f 3/81/5 6/126/5 19/79/5
f 19/82/4 20/130/4 34/83/4
f 43/85/4 24/131/4 23/86/4
f 25/88/1 23/132/1 24/89/1
f 6/126/5 7/133/5 37/92/5
f 7/133/5 9/93/5 37/92/5
f 9/93/5 39/117/5 40/91/5
f 25/94/4 22/134/4 15/95/4
f 44/97/5 3/81/5 15/80/5
f 15/80/5 22/57/5 44/97/5
f 22/57/5 42/56/5 14/98/5
o zones_geometry1.002
v 0.072491 0.590088 0.024354
v 0.000000 0.595313 0.024354
v 0.000000 0.590088 0.024354
v -0.072491 0.590088 0.024354
v -0.082713 0.578532 0.024354
v -0.146110 0.405093 0.024354
v -0.151334 0.406094 0.024354
v -0.049892 0.143822 0.024354
v 0.000000 0.143822 0.024354
v -0.047544 0.149047 0.024354
v -0.146110 0.260040 0.024354
v 0.000000 0.149047 0.024354
v 0.049892 0.143822 0.024354
v 0.047545 0.149047 0.024354
v 0.151335 0.258055 0.024354
v 0.146110 0.260040 0.024354
v 0.151335 0.406094 0.024354
v 0.146110 0.405093 0.024354
v 0.082713 0.578532 0.024354
v -0.151334 0.258055 0.024354
v -0.076035 0.595313 0.024354
v 0.076035 0.595313 0.024354
v 0.000000 0.250285 0.024354
v -0.020184 0.250285 0.024354
v 0.000000 0.245060 0.024354
v -0.024213 0.568654 0.024354
v -0.076035 0.409803 0.024354
v -0.070810 0.408972 0.024354
v -0.070810 0.320157 0.024354
v -0.022851 0.245060 0.024354
v 0.020184 0.250285 0.024354
v 0.070810 0.408972 0.024354
v 0.070810 0.320157 0.024354
v 0.076035 0.409803 0.024354
v 0.076035 0.318463 0.024354
v 0.022851 0.245060 0.024354
v 0.000000 0.568654 0.024354
v 0.000000 0.563429 0.024354
v 0.020422 0.563429 0.024354
v 0.024213 0.568654 0.024354
v -0.076035 0.318463 0.024354
v -0.020422 0.563429 0.024354
vt 1677.130005 -517.609985
vt 1682.349976 -445.119019
vt 1677.130005 -445.119019
vt 1677.130005 -372.629028
vt 1665.569946 -362.407013
vt 1492.130005 -299.009979
vt 1236.089966 -397.575012
vt 1347.079956 -299.009979
vt 1230.859985 -395.227020
vt 1230.859985 -495.012024
vt 1345.089966 -596.454102
vt 1347.079956 -591.229004
vt 1493.130005 -596.454102
vt 1493.130005 -293.785004
vt 1345.089966 -293.785004
vt 1665.569946 -527.832031
vt 1682.349976 -521.154114
vt 1337.319946 -445.119019
vt 1337.319946 -424.935028
vt 1332.099976 -445.119019
vt 1655.689941 -420.906006
vt 1496.839966 -369.085022
vt 1496.010010 -374.309998
vt 1407.200073 -374.309998
vt 1332.099976 -422.268005
vt 1337.319946 -465.304016
vt 1496.010010 -515.929016
vt 1407.200073 -515.929016
vt 1496.839966 -521.154114
vt 1405.500000 -521.154114
vt 1332.099976 -467.970001
vt 1655.689941 -445.119019
vt 1650.469971 -445.119019
vt 1650.469971 -465.541016
vt 1655.689941 -469.333008
vt 1405.500000 -369.085022
vt 1650.469971 -424.697021
vt 1230.859985 -445.119019
vt 1236.089966 -445.119019
vt 1236.089966 -492.664032
vt 1492.130005 -591.229004
vt 1682.349976 -369.085022
vn 0.0000 0.0000 1.0000
usemtl dark.002
s off
f 45/135/7 46/136/7 47/137/7
f 48/138/7 49/139/7 50/140/7
f 54/141/7 55/142/7 52/143/7
f 57/144/7 59/145/7 60/146/7
f 61/147/7 60/146/7 59/145/7
f 51/148/7 64/149/7 55/142/7
f 63/150/7 66/151/7 45/135/7
f 46/136/7 45/135/7 66/151/7
f 67/152/7 68/153/7 69/154/7
f 70/155/7 71/156/7 72/157/7
f 68/153/7 73/158/7 74/159/7
f 67/152/7 69/154/7 75/160/7
f 76/161/7 77/162/7 78/163/7
f 78/163/7 77/162/7 79/164/7
f 77/162/7 75/160/7 80/165/7
f 81/166/7 82/167/7 83/168/7
f 84/169/7 76/161/7 78/163/7
f 80/165/7 79/164/7 77/162/7
f 69/154/7 80/165/7 75/160/7
f 83/168/7 76/161/7 84/169/7
f 69/154/7 68/153/7 74/159/7
f 71/156/7 85/170/7 73/158/7
f 74/159/7 73/158/7 85/170/7
f 72/157/7 71/156/7 73/158/7
f 81/166/7 70/155/7 86/171/7
f 70/155/7 72/157/7 86/171/7
f 86/171/7 82/167/7 81/166/7
f 81/166/7 83/168/7 84/169/7
f 51/148/7 50/140/7 49/139/7
f 52/143/7 53/172/7 54/141/7
f 56/173/7 54/141/7 53/172/7
f 57/144/7 58/174/7 53/172/7
f 60/146/7 61/147/7 62/175/7
f 63/150/7 62/175/7 61/147/7
f 51/148/7 55/142/7 50/140/7
f 60/146/7 58/174/7 57/144/7
f 58/174/7 56/173/7 53/172/7
f 52/143/7 55/142/7 64/149/7
f 46/136/7 65/176/7 48/138/7
f 65/176/7 49/139/7 48/138/7
f 45/135/7 62/175/7 63/150/7
f 48/138/7 47/137/7 46/136/7
o target_geometry6.003
v 0.000000 0.324043 0.019419
v 0.000000 0.595436 0.019419
v -0.226635 0.309993 0.019419
v -0.151335 0.120005 0.019419
v 0.000000 0.026243 0.019419
v 0.226635 0.309993 0.019419
v 0.151335 0.500826 0.019419
v 0.076035 0.595436 0.019419
v 0.226635 0.406217 0.019419
v 0.226635 0.213768 0.019419
v 0.076035 0.026243 0.019419
v -0.151335 0.500826 0.019419
v -0.076035 0.595436 0.019419
v 0.226635 0.406217 0.022419
v 0.226635 0.213768 0.022419
v 0.226635 0.309993 0.022419
v 0.076035 0.026243 0.022419
v 0.151335 0.120005 0.019419
v -0.151335 0.120005 0.022419
v -0.076035 0.026243 0.019419
v -0.076035 0.026243 0.022419
v -0.226635 0.309993 0.022419
v -0.226635 0.406217 0.019419
v -0.226635 0.213768 0.019419
v -0.226635 0.213768 0.022419
v -0.151335 0.500826 0.022419
v 0.000000 0.026243 0.022419
v 0.151335 0.120005 0.022419
v -0.226635 0.406217 0.022419
v 0.000000 0.595436 0.022419
v 0.151335 0.500826 0.022419
v 0.076035 0.595436 0.022419
v -0.076035 0.595436 0.022419
vt 1113.160034 -521.154114
vt 1136.599976 -539.979004
vt 1113.160034 -490.739990
vt 1345.089966 -293.785004
vt 1206.919922 -293.785004
vt 1230.859985 -395.227020
vt 1493.130005 -218.485016
vt 1461.059937 -218.485016
vt 1516.789917 -237.309998
vt 1300.679932 -218.485016
vt 1277.239990 -237.309998
vt 1332.760010 -218.485016
vt 1113.160034 -369.085022
vt 1113.160034 -399.499023
vt 1136.599976 -350.259979
vt 1230.859985 -495.012024
vt 1206.919922 -596.454102
vt 1345.089966 -596.454102
vt 1332.760010 -671.754028
vt 1277.239990 -652.929016
vt 1300.679932 -671.754028
vt 1493.130005 -671.754028
vt 1516.789917 -652.929016
vt 1461.059937 -671.754028
vt -241.835007 -3.000000
vt -211.606003 0.000000
vt -241.835007 0.000000
vt 76.034698 0.000000
vt 45.620800 -3.000000
vt 76.034698 -3.000000
vt -0.000005 0.000000
vt -32.074799 -3.000000
vt 0.000000 -3.000000
vt -240.513016 -3.000000
vt -210.449005 0.000000
vt -240.513016 0.000000
vt -192.449005 -3.000000
vt -160.374008 0.000000
vt -192.449005 0.000000
vt -76.034698 -3.000000
vt -45.620800 0.000000
vt -76.034698 0.000000
vt -0.000004 0.000000
vt -30.064098 -3.000000
vt 0.000000 -3.000000
vt -241.835007 0.000000
vt -211.606003 -3.000000
vt -211.606003 0.000000
vt -0.000004 0.000000
vt -30.064098 -3.000000
vt 0.000000 -3.000000
vt 76.034698 0.000000
vt 45.620800 -3.000000
vt 76.034698 -3.000000
vt -0.000005 0.000000
vt -32.074799 -3.000000
vt 0.000000 -3.000000
vt -76.034698 0.000000
vt -45.620800 -3.000000
vt -50.689800 0.000000
vt -192.449005 -3.000000
vt -160.374008 0.000000
vt -192.449005 0.000000
vt 219.417007 132.509995
vt 290.375000 -15.206900
vt 219.417007 -132.509995
vt -91.292900 226.635010
vt -59.218098 226.635010
vt -114.734009 207.809998
vt -278.819000 76.034698
vt -255.378006 94.859795
vt -278.819000 45.620800
vt -278.819000 -76.034698
vt -278.819000 -45.620800
vt -255.378006 -94.859695
vt -278.819000 15.207001
vt -208.497009 132.509995
vt -208.497009 -132.509995
vt -114.734009 -207.809998
vt -59.218197 -226.635010
vt -91.292900 -226.635010
vt 172.113007 -170.160004
vt 4.931420 -226.635010
vt -161.615005 -170.160004
vt 101.156006 -226.635010
vt 69.081001 -226.635010
vt 124.808006 -207.809998
vt -0.000004 0.000000
vt -30.229399 -3.000000
vt 0.000000 -3.000000
vt 290.374023 -76.034698
vt 266.722015 -94.859695
vt 290.374023 -45.620800
vt 266.722015 94.859795
vt 290.374023 76.034698
vt 290.374023 45.620800
vt 4.931440 226.635010
vt 172.113007 170.160004
vt -161.615005 170.160004
vt 101.156006 226.635010
vt 124.808006 207.809998
vt 69.081001 226.635010
vt 0.000000 -3.000000
vt -30.229399 0.000000
vt -30.229399 -3.000000
vt -240.513016 -3.000000
vt -210.449005 0.000000
vt -240.513016 0.000000
vt 1347.079956 -299.009979
vt 1405.500000 -369.085022
vt 1492.130005 -299.009979
vt 1496.839966 -369.085022
vt 1677.130005 -372.629028
vt 1655.689941 -420.906006
vt 1677.130005 -517.609985
vt 1655.689941 -469.333008
vt 1496.839966 -521.154114
vt 1492.130005 -591.229004
vt 1405.500000 -521.154114
vt 1347.079956 -591.229004
vt -185.056015 -151.335007
vt 195.765015 151.335007
vt 195.765015 -151.335007
vt -211.606003 -3.000000
vt 50.689800 0.000000
vt -32.074799 0.000000
vt -210.449005 -3.000000
vt -160.374008 -3.000000
vt -45.620800 -3.000000
vt -30.064098 0.000000
vt -241.835007 -3.000000
vt -30.064098 0.000000
vt 45.620800 0.000000
vt -32.074799 0.000000
vt -76.034698 -3.000000
vt -160.374008 -3.000000
vt -30.229399 0.000000
vt -0.000004 0.000000
vt -210.449005 -3.000000
vt -185.056015 151.335007
vn 0.0000 0.0000 -1.0000
vn 0.7824 0.6227 0.0000
vn 0.0000 1.0000 0.0000
vn 1.0000 0.0000 0.0000
vn 0.7797 -0.6262 0.0000
vn 0.0000 -1.0000 0.0000
vn -0.7824 0.6227 0.0000
vn -0.7797 -0.6262 0.0000
vn -1.0000 0.0000 0.0000
vn 0.0000 0.0000 1.0000
usemtl paper.003
s off
f 106/177/8 90/178/8 91/179/8
f 92/180/8 104/181/8 87/182/8
f 95/183/8 92/184/8 93/185/8
f 96/186/8 104/187/8 92/188/8
f 97/189/8 91/190/8 104/191/8
f 87/182/8 104/191/8 91/190/8
f 87/192/8 91/179/8 90/178/8
f 87/192/8 90/193/8 89/194/8
f 89/195/8 90/196/8 110/197/8
f 109/198/8 98/199/8 89/200/8
f 118/201/9 93/202/9 94/203/9
f 94/204/10 116/205/10 118/206/10
f 96/207/11 102/208/11 101/209/11
f 101/210/12 104/211/12 96/212/12
f 100/213/11 92/214/11 95/215/11
f 103/216/13 91/217/13 97/218/13
f 97/219/12 114/220/12 103/221/12
f 109/222/14 112/223/14 98/224/14
f 110/225/15 105/226/15 111/227/15
f 106/228/13 113/229/13 107/230/13
f 109/231/16 108/232/16 115/233/16
f 99/234/10 116/235/10 88/236/10
f 111/237/16 89/238/16 110/239/16
f 117/240/17 116/241/17 112/242/17
f 101/243/17 102/244/17 114/245/17
f 103/246/17 114/247/17 113/248/17
f 107/249/17 113/250/17 105/251/17
f 113/252/17 114/253/17 105/254/17
f 105/255/17 108/256/17 111/257/17
f 112/258/17 108/259/17 105/260/17
f 115/261/17 108/262/17 112/263/17
f 95/264/9 117/265/9 100/266/9
f 119/267/17 112/268/17 116/269/17
f 117/270/17 118/271/17 116/272/17
f 102/273/17 117/274/17 114/275/17
f 100/276/17 117/277/17 102/278/17
f 119/279/14 98/280/14 112/281/14
f 107/282/15 90/283/15 106/284/15
f 92/285/8 87/286/8 93/287/8
f 93/287/8 87/288/8 94/289/8
f 94/289/8 87/288/8 88/290/8
f 99/291/8 88/292/8 87/293/8
f 99/291/8 87/293/8 98/294/8
f 98/294/8 87/295/8 89/296/8
f 105/297/17 117/298/17 112/299/17
f 118/201/9 117/300/9 93/202/9
f 94/204/10 88/301/10 116/205/10
f 96/207/11 92/302/11 102/208/11
f 101/210/12 114/303/12 104/211/12
f 100/213/11 102/304/11 92/214/11
f 103/216/13 113/305/13 91/217/13
f 97/219/12 104/306/12 114/220/12
f 109/222/14 115/307/14 112/223/14
f 110/225/15 90/308/15 105/226/15
f 106/228/13 91/309/13 113/229/13
f 109/231/16 89/310/16 108/232/16
f 99/234/10 119/311/10 116/235/10
f 111/237/16 108/312/16 89/238/16
f 95/264/9 93/313/9 117/265/9
f 119/279/14 99/314/14 98/280/14
f 107/282/15 105/315/15 90/283/15
f 105/297/17 114/316/17 117/298/17
o plank_geometry16.002
v 0.021978 -0.959699 -0.012104
v 0.021978 0.308708 -0.012104
v 0.021978 -0.959699 0.002472
v 0.021978 0.308708 0.002472
v -0.021978 -0.959699 -0.012104
v -0.021978 0.308708 -0.012104
v -0.021978 -0.959699 0.002472
v -0.021978 0.308708 0.002472
vt 0.625000 0.000000
vt 0.375000 0.250000
vt 0.375000 0.000000
vt 0.625000 0.250000
vt 0.375000 0.500000
vt 0.625000 0.500000
vt 0.375000 0.750000
vt 0.625000 0.750000
vt 0.375000 1.000000
vt 0.125000 0.750000
vt 0.125000 0.500000
vt 0.875000 0.500000
vt 0.625000 1.000000
vt 0.875000 0.750000
vn 1.0000 0.0000 0.0000
vn -0.0000 -0.0000 1.0000
vn -1.0000 0.0000 0.0000
vn 0.0000 0.0000 -1.0000
vn 0.0000 -1.0000 0.0000
vn 0.0000 1.0000 0.0000
usemtl dark.002
s off
f 121/317/18 122/318/18 120/319/18
f 123/320/19 126/321/19 122/318/19
f 127/322/20 124/323/20 126/321/20
f 125/324/21 120/325/21 124/323/21
f 126/321/22 120/326/22 122/327/22
f 123/328/23 125/324/23 127/322/23
f 121/317/18 123/320/18 122/318/18
f 123/320/19 127/322/19 126/321/19
f 127/322/20 125/324/20 124/323/20
f 125/324/21 121/329/21 120/325/21
f 126/321/22 124/323/22 120/326/22
f 123/328/23 121/330/23 125/324/23
