# Blender v2.82 (sub 7) OBJ File: ''
# www.blender.org
mtllib USPSA_metric.mtl
o stand_geometry1
v 0.136813 0.025200 -0.144000
v 0.136813 0.000000 0.144000
v 0.136813 0.025200 0.144000
v 0.162013 0.025200 0.144000
v 0.162013 0.000000 0.144000
v 0.136813 0.000000 -0.014400
v -0.033564 0.000000 0.014400
v 0.031236 0.000000 -0.014400
v 0.136813 0.025200 0.039600
v -0.139141 0.025200 0.039600
v -0.164341 0.025200 0.144000
v 0.136813 0.025200 0.014400
v -0.139141 0.025200 -0.014400
v -0.139141 0.025200 -0.039600
v 0.162013 0.025200 -0.144000
v -0.139141 0.025200 -0.144000
v 0.136813 0.025200 -0.039600
v 0.162013 0.000000 -0.144000
v 0.136813 0.000000 -0.144000
v 0.136813 0.025200 -0.014400
v 0.136813 0.000000 -0.039600
v -0.139141 0.000000 -0.039600
v -0.033564 0.000000 -0.014400
v -0.033564 0.025200 -0.014400
v -0.139141 0.025200 0.014400
v -0.139141 0.000000 -0.014400
v -0.139141 0.000000 0.014400
v -0.033564 0.025200 0.014400
v 0.031236 0.025200 0.014400
v 0.031236 0.025200 -0.014400
v -0.033564 0.524731 0.014400
v 0.031236 0.524731 0.014400
v 0.031236 0.524731 -0.014400
v -0.033564 0.524731 -0.014400
v 0.031236 0.000000 0.014400
v 0.136813 0.000000 0.014400
v 0.136813 0.000000 0.039600
v -0.139141 0.000000 0.039600
v -0.164341 0.025200 -0.144000
v -0.139141 0.000000 -0.144000
v -0.164341 0.000000 -0.144000
v -0.139141 0.000000 0.144000
v -0.164341 0.000000 0.144000
v -0.139141 0.025200 0.144000
vt 25.200001 183.600006
vt 0.000000 288.000000
vt 25.200001 288.000000
vt 25.200001 0.000000
vt 0.000000 288.000000
vt 25.200001 288.000000
vt 434.731018 28.800001
vt -64.800011 0.000000
vt -64.800011 28.800001
vt 25.200001 0.000000
vt 0.000000 0.000000
vt 25.200001 104.400002
vt 195.577011 129.600006
vt 130.777008 129.600006
vt 301.154022 158.400009
vt 301.154022 183.600006
vt 326.354004 288.000000
vt 25.200001 28.800001
vt 0.000000 0.000000
vt 0.000000 28.800001
vt 130.777008 158.400009
vt 25.200001 158.400009
vt 25.200001 183.600006
vt 25.200001 158.400009
vt 0.000000 129.600006
vt 0.000000 158.400009
vt 25.200001 129.600006
vt 0.000000 158.400009
vt 25.200001 158.400009
vt -301.154022 288.000000
vt -275.954010 183.600006
vt -275.954010 158.400009
vt 0.000000 0.000000
vt 25.200001 288.000000
vt 25.200001 0.000000
vt 0.000012 183.600006
vt -0.000011 158.400009
vt -105.577003 158.400009
vt -275.954010 104.400002
vt -275.954010 129.600006
vt -170.377014 129.600006
vt 1507.859985 754.706055
vt 1533.059937 860.283020
vt 1533.059937 754.706055
vt 1507.859985 729.506104
vt 1533.059937 754.706055
vt 1533.059937 729.506104
vt 0.000000 0.000000
vt 25.200001 104.400002
vt 25.200001 0.000000
vt 1507.859985 925.083069
vt 1008.329956 860.283020
vt 1008.329956 925.083069
vt 1533.059937 1030.660034
vt 1507.859985 925.083069
vt 1507.859985 1030.660034
vt 1008.329956 860.283020
vt 1008.329956 925.083069
vt 25.200001 0.000000
vt 524.731018 28.800001
vt 524.731018 0.000000
vt 1507.859985 -860.283020
vt 1533.059937 -754.706055
vt 1533.059937 -860.283020
vt 1533.059937 -754.706055
vt 1507.859985 -1030.660034
vt 1533.059937 -1030.660034
vt 1507.859985 754.706055
vt 1533.059937 1030.660034
vt 1507.859985 1030.660034
vt 459.931030 0.000000
vt 459.931030 28.800001
vt -10.800000 0.000000
vt 54.000000 28.800001
vt 54.000000 0.000000
vt 195.577011 158.400009
vt 1507.859985 -1030.660034
vt 1533.059937 -925.083069
vt 1533.059937 -1030.660034
vt 0.000000 183.600006
vt 25.200001 288.000000
vt 25.200001 183.600006
vt 1507.859985 729.506104
vt 1533.059937 754.706055
vt 1507.859985 754.706055
vt 1507.859985 1030.660034
vt 1533.059937 1055.859985
vt 1507.859985 1055.859985
vt 1507.859985 1030.660034
vt 1533.059937 1055.859985
vt 1533.059937 1030.660034
vt 25.200001 0.000000
vt 0.000000 104.400002
vt 25.200001 104.400002
vt 0.000009 104.400002
vt 0.000008 129.600006
vt 25.200001 0.000000
vt 0.000000 183.600006
vt 0.000000 0.000000
vt 434.731018 0.000000
vt 25.200001 288.000000
vt 0.000000 288.000000
vt 25.200001 129.600006
vt 301.154022 129.600006
vt 301.154022 104.400002
vt 301.154022 288.000000
vt 326.354004 0.000000
vt 301.154022 0.000000
vt 25.200001 129.600006
vt 0.000000 129.600006
vt -301.154022 0.000000
vt -275.954010 0.000000
vt -275.954010 288.000000
vt 0.000000 288.000000
vt -170.377014 158.400009
vt -105.577003 129.600006
vt 1507.859985 860.283020
vt 1507.859985 754.706055
vt 0.000000 104.400002
vt 1507.859985 860.283020
vt 1533.059937 925.083069
vt 1507.859985 -754.706055
vt 1507.859985 -754.706055
vt 1533.059937 754.706055
vt -10.800000 28.800001
vt 1507.859985 -925.083069
vt 0.000000 288.000000
vt 1533.059937 729.506104
vt 1533.059937 1030.660034
vt 1507.859985 1055.859985
vt 0.000000 0.000000
vt 25.200001 288.000000
vt -0.000010 288.000000
vt 0.000007 0.000000
vn -1.0000 0.0000 0.0000
vn 1.0000 0.0000 0.0000
vn 0.0000 -1.0000 0.0000
vn -0.0000 1.0000 -0.0000
vn 0.0000 0.0000 1.0000
vn 0.0000 -0.0000 -1.0000
usemtl dark
s off
f 9/1/1 2/2/1 3/3/1
f 39/4/1 43/5/1 11/6/1
f 29/7/2 33/8/2 32/9/2
f 19/10/3 18/11/3 21/12/3
f 23/13/3 21/12/3 8/14/3
f 27/15/3 38/16/3 43/17/3
f 28/18/1 23/19/1 7/20/1
f 35/21/3 36/22/3 37/23/3
f 12/24/1 6/25/1 36/26/1
f 26/27/2 25/28/2 27/29/2
f 11/30/4 10/31/4 25/32/4
f 15/33/2 5/34/2 18/35/2
f 9/36/4 12/37/4 29/38/4
f 14/39/4 13/40/4 24/41/4
f 20/42/5 8/43/5 6/44/5
f 4/45/5 2/46/5 5/47/5
f 16/48/2 22/49/2 40/50/2
f 28/51/5 32/52/5 31/53/5
f 26/54/5 24/55/5 13/56/5
f 33/57/6 24/55/6 34/58/6
f 24/59/1 31/60/1 34/61/1
f 29/62/6 36/63/6 35/64/6
f 37/65/5 10/66/5 38/67/5
f 17/68/6 22/69/6 14/70/6
f 8/71/2 29/7/2 35/72/2
f 34/73/4 32/74/4 33/75/4
f 23/13/3 35/21/3 7/76/3
f 25/77/6 7/78/6 27/79/6
f 10/80/2 42/81/2 38/82/2
f 15/83/6 19/84/6 1/85/6
f 16/86/6 41/87/6 39/88/6
f 44/89/5 43/90/5 42/91/5
f 1/92/1 21/93/1 17/94/1
f 17/95/4 20/96/4 15/97/4
f 9/1/1 37/98/1 2/2/1
f 39/4/1 41/99/1 43/5/1
f 29/7/2 30/100/2 33/8/2
f 2/101/3 37/23/3 5/102/3
f 37/23/3 36/22/3 5/102/3
f 36/22/3 6/103/3 5/102/3
f 6/103/3 21/12/3 18/11/3
f 5/102/3 6/103/3 18/11/3
f 23/13/3 26/104/3 22/105/3
f 22/105/3 21/12/3 23/13/3
f 21/12/3 6/103/3 8/14/3
f 38/16/3 42/106/3 43/17/3
f 43/17/3 41/107/3 27/15/3
f 41/107/3 40/108/3 22/105/3
f 27/15/3 41/107/3 26/104/3
f 22/105/3 26/104/3 41/107/3
f 28/18/1 24/59/1 23/19/1
f 37/23/3 38/16/3 35/21/3
f 38/16/3 27/15/3 7/76/3
f 35/21/3 38/16/3 7/76/3
f 12/24/1 20/109/1 6/25/1
f 26/27/2 13/110/2 25/28/2
f 13/40/4 14/39/4 39/111/4
f 14/39/4 16/112/4 39/111/4
f 39/111/4 11/30/4 25/32/4
f 11/30/4 44/113/4 10/31/4
f 25/32/4 13/40/4 39/111/4
f 15/33/2 4/114/2 5/34/2
f 29/38/4 28/115/4 10/31/4
f 28/115/4 25/32/4 10/31/4
f 10/31/4 9/36/4 29/38/4
f 24/41/4 30/116/4 17/95/4
f 30/116/4 20/96/4 17/95/4
f 17/95/4 14/39/4 24/41/4
f 20/42/5 30/117/5 8/43/5
f 4/45/5 3/118/5 2/46/5
f 16/48/2 14/119/2 22/49/2
f 28/51/5 29/120/5 32/52/5
f 26/54/5 23/121/5 24/55/5
f 33/57/6 30/117/6 24/55/6
f 24/59/1 28/18/1 31/60/1
f 29/62/6 12/122/6 36/63/6
f 37/65/5 9/123/5 10/66/5
f 17/68/6 21/124/6 22/69/6
f 8/71/2 30/100/2 29/7/2
f 34/73/4 31/125/4 32/74/4
f 23/13/3 8/14/3 35/21/3
f 25/77/6 28/126/6 7/78/6
f 10/80/2 44/127/2 42/81/2
f 15/83/6 18/128/6 19/84/6
f 16/86/6 40/129/6 41/87/6
f 44/89/5 11/130/5 43/90/5
f 1/92/1 19/131/1 21/93/1
f 20/96/4 12/37/4 4/132/4
f 12/37/4 9/36/4 4/132/4
f 9/36/4 3/133/4 4/132/4
f 4/132/4 15/97/4 20/96/4
f 15/97/4 1/134/4 17/95/4
o plank_geometry6
v 0.021934 -0.939679 0.046458
v -0.021934 -0.939679 0.046458
v -0.021934 -0.939679 0.032058
v 0.021934 -0.939679 0.032058
v -0.021934 0.361356 0.032058
v 0.021934 0.361356 0.032058
v 0.021934 0.361356 0.046458
v -0.021934 0.361356 0.046458
vt 878.400024 0.000000
vt 0.000000 14.400001
vt 878.400024 14.400001
vt 0.000000 0.000000
vt 43.867500 14.400001
vt 43.867500 0.000000
vt 43.867500 0.000000
vt 0.000000 14.400001
vt 43.867500 14.400001
vt 878.400024 14.400001
vt 0.000000 0.000000
vt 0.000000 14.400001
vt 1373.760010 870.749023
vt 495.359009 914.617065
vt 495.359009 870.749023
vt 1373.760010 914.617065
vt 495.359009 870.749023
vt 495.359009 914.617065
vt 0.000000 0.000000
vt 0.000000 14.400001
vt 0.000000 0.000000
vt 878.400024 0.000000
vt 1373.760010 914.617065
vt 1373.760010 870.749023
vn 1.0000 -0.0000 0.0000
vn 0.0000 -1.0000 0.0000
vn 0.0000 1.0000 0.0000
vn -1.0000 0.0000 0.0000
vn 0.0000 -0.0000 -1.0000
vn 0.0000 0.0000 1.0000
usemtl dark
s off
f 48/135/7 51/136/7 45/137/7
f 48/138/8 46/139/8 47/140/8
f 50/141/9 52/142/9 51/143/9
f 52/144/10 47/145/10 46/146/10
f 48/147/11 49/148/11 50/149/11
f 46/150/12 51/151/12 52/152/12
f 48/135/7 50/153/7 51/136/7
f 48/138/8 45/154/8 46/139/8
f 50/141/9 49/155/9 52/142/9
f 52/144/10 49/156/10 47/145/10
f 48/147/11 47/157/11 49/148/11
f 46/150/12 45/158/12 51/151/12
o target_geometry11
v 0.070562 0.625528 0.063306
v -0.070562 0.625528 0.063306
v -0.070562 0.625528 0.060306
v -0.143199 0.025099 0.060306
v 0.070562 0.774928 0.060306
v 0.070562 0.625528 0.060306
v 0.218944 0.578827 0.060306
v 0.218944 0.173790 0.060306
v 0.143199 0.025099 0.060306
v -0.218944 0.173790 0.060306
v -0.218944 0.578827 0.060306
v -0.172050 0.625528 0.060306
v -0.070562 0.774928 0.060306
v -0.070562 0.774928 0.063306
v 0.172050 0.625528 0.060306
v 0.218944 0.173790 0.063306
v 0.218944 0.578827 0.063306
v 0.143199 0.025099 0.063306
v -0.218944 0.173790 0.063306
v -0.218944 0.578827 0.063306
v -0.172050 0.625528 0.063306
v 0.070562 0.774928 0.063306
v -0.143199 0.025099 0.063306
v 0.172050 0.625528 0.063306
vt -82.188698 -348.221008
vt -427.882019 -496.603027
vt -315.831024 -671.555054
vt 0.000003 0.000000
vt -66.183098 -3.000000
vt 0.000000 -3.000000
vt 70.561600 -3.000000
vt -70.561600 0.000000
vt -70.561600 -3.000000
vt -37.350201 0.000000
vt -149.401001 -3.000000
vt -37.350201 -3.000000
vt -0.000005 0.000000
vt -67.658897 -3.000000
vt 0.000000 -3.000000
vt -33.091499 0.000000
vt -66.183098 -3.000000
vt -33.091499 -3.000000
vt -280.409027 0.000000
vt -218.096008 -3.000000
vt -218.096008 0.000000
vt 0.000000 -3.000000
vt -100.122002 0.000000
vt -100.122002 -3.000000
vt -133.497009 0.000000
vt -33.374100 -3.000000
vt 0.000000 -3.000000
vt -155.783005 0.000000
vt -186.939011 -3.000000
vt -155.783005 -3.000000
vt -37.350201 -3.000000
vt -0.000005 0.000000
vt -37.350201 0.000000
vt 2061.669922 -1677.149902
vt 2036.529907 -1512.949951
vt 1490.979980 -1456.300049
vt -33.829399 0.000000
vt -33.829399 -3.000000
vt 0.000000 -3.000000
vt 143.199005 0.000000
vt -111.377007 -3.000000
vt 143.199005 -3.000000
vt -315.831024 -705.385010
vt -144.502014 -786.108032
vt 195.383011 -755.809998
vt 225.121017 -740.661011
vt 195.383011 -378.518005
vt -113.345009 -348.221008
vt -315.831024 -462.773010
vt -465.232025 -496.603027
vt -465.232025 -567.164001
vt -66.183098 0.000000
vt 70.561600 0.000000
vt -149.401001 0.000000
vt -67.658897 0.000000
vt -66.183098 0.000000
vt -280.409027 -3.000000
vt -0.000009 0.000000
vt -166.871002 0.000000
vt -186.939011 0.000000
vt 0.000000 -3.000000
vt 1461.239990 -1471.449951
vt 1461.239990 -1757.849976
vt 1550.449951 -1803.289917
vt 2038.309937 -1810.140015
vt 2061.669922 -1786.700073
vt 2140.579834 -1614.650024
vt 2140.579834 -1568.869995
vt 2061.669922 -1442.599976
vt 1859.179932 -1395.700073
vt -67.658897 0.000000
vt -143.199005 0.000000
vn -0.0000 0.0000 -1.0000
vn 0.7056 -0.7086 0.0000
vn 0.0000 -1.0000 0.0000
vn -1.0000 0.0000 0.0000
vn -0.7056 -0.7086 0.0000
vn -0.8910 0.4539 0.0000
vn 0.8910 0.4539 0.0000
vn 1.0000 -0.0000 0.0000
vn 0.0000 0.0000 1.0000
vn 0.0000 1.0000 0.0000
usemtl paper
s off
f 62/159/13 55/160/13 58/161/13
f 73/162/14 63/163/14 64/164/14
f 57/165/15 66/166/15 65/167/15
f 53/168/16 57/169/16 58/170/16
f 76/171/15 58/172/15 67/173/15
f 69/174/17 67/175/17 59/176/17
f 69/177/16 60/178/16 68/179/16
f 61/180/18 68/181/18 60/182/18
f 71/183/19 56/184/19 62/185/19
f 72/186/20 62/187/20 63/188/20
f 55/189/20 66/190/20 54/191/20
f 53/192/21 54/193/21 71/194/21
f 54/195/15 64/196/15 55/197/15
f 75/198/22 61/199/22 56/200/22
f 58/161/13 67/201/13 59/202/13
f 59/202/13 60/203/13 58/161/13
f 60/203/13 61/204/13 62/159/13
f 61/204/13 56/205/13 62/159/13
f 62/159/13 63/206/13 55/160/13
f 63/206/13 64/207/13 55/160/13
f 55/160/13 65/208/13 57/209/13
f 60/203/13 62/159/13 58/161/13
f 55/160/13 57/209/13 58/161/13
f 73/162/14 72/210/14 63/163/14
f 57/165/15 74/211/15 66/166/15
f 53/168/16 74/212/16 57/169/16
f 76/171/15 53/213/15 58/172/15
f 69/174/17 76/214/17 67/175/17
f 69/177/16 59/215/16 60/178/16
f 61/180/18 70/216/18 68/181/18
f 71/183/19 75/217/19 56/184/19
f 72/186/20 71/218/20 62/187/20
f 55/189/20 65/219/20 66/190/20
f 75/220/21 70/221/21 68/222/21
f 68/222/21 69/223/21 53/192/21
f 69/223/21 76/224/21 53/192/21
f 53/192/21 74/225/21 66/226/21
f 71/194/21 75/220/21 68/222/21
f 73/227/21 72/228/21 54/193/21
f 72/228/21 71/194/21 54/193/21
f 53/192/21 66/226/21 54/193/21
f 71/194/21 68/222/21 53/192/21
f 54/195/15 73/229/15 64/196/15
f 75/198/22 70/230/22 61/199/22
o zones_geometry16
v -0.038908 0.711134 0.063501
v -0.045773 0.751284 0.063501
v -0.038908 0.744424 0.063501
v 0.038912 0.711134 0.063501
v 0.038912 0.744424 0.063501
v 0.045777 0.704264 0.063501
v 0.045777 0.751284 0.063501
v -0.045773 0.704264 0.063501
v -0.057399 0.302036 0.063501
v -0.064264 0.574474 0.063501
v -0.057399 0.567604 0.063501
v 0.057403 0.302036 0.063501
v 0.057403 0.567604 0.063501
v 0.064268 0.295171 0.063501
v 0.064268 0.574474 0.063501
v -0.064264 0.295171 0.063501
v -0.144638 0.296834 0.063501
v -0.137773 0.568914 0.063501
v -0.137773 0.298249 0.063501
v 0.060491 0.618484 0.063501
v 0.137777 0.568914 0.063501
v 0.137777 0.298249 0.063501
v 0.144642 0.296834 0.063501
v 0.087477 0.181364 0.063501
v -0.091992 0.174499 0.063501
v -0.144638 0.572674 0.063501
v -0.062500 0.625354 0.063501
v -0.060488 0.618484 0.063501
v 0.091996 0.174499 0.063501
v 0.144642 0.572674 0.063501
v 0.062504 0.625354 0.063501
v -0.087473 0.181364 0.063501
vt 2147.449951 -1575.739990
vt 2187.600098 -1568.869995
vt 2180.729980 -1575.739990
vt 2180.729980 -1653.559937
vt 2140.579834 -1660.419922
vt 2147.449951 -1653.559937
vt 2010.779907 -1550.380005
vt 2003.919922 -1672.049927
vt 2003.919922 -1557.250000
vt 1731.479980 -1678.909912
vt 1738.349976 -1557.250000
vt 1738.349976 -1672.049927
vt 1731.479980 -1550.380005
vt 2187.600098 -1660.419922
vt 2005.229980 -1476.869995
vt 2061.669922 -1552.150024
vt 2054.800049 -1554.159912
vt 1733.149902 -1470.010010
vt 1617.679932 -1527.169922
vt 1610.809937 -1522.650024
vt 1733.149902 -1759.289917
vt 2005.229980 -1752.419922
vt 2008.979980 -1759.289917
vt 2008.979980 -1470.010010
vt 2061.669922 -1677.149902
vt 2054.800049 -1675.140015
vt 1617.679932 -1702.119995
vt 1734.559937 -1752.419922
vt 2140.579834 -1568.869995
vt 2010.779907 -1678.909912
vt 1734.559937 -1476.869995
vt 1610.809937 -1706.640015
vn 0.0000 0.0000 1.0000
usemtl dark
s off
f 80/231/23 83/232/23 81/233/23
f 83/232/23 79/234/23 81/233/23
f 84/235/23 80/231/23 77/236/23
f 91/237/23 87/238/23 89/239/23
f 92/240/23 88/241/23 85/242/23
f 89/239/23 90/243/23 91/237/23
f 77/236/23 78/244/23 84/235/23
f 97/245/23 107/246/23 96/247/23
f 99/248/23 100/249/23 105/250/23
f 93/251/23 94/252/23 102/253/23
f 97/245/23 99/248/23 106/254/23
f 96/247/23 103/255/23 104/256/23
f 108/257/23 105/250/23 100/249/23
f 93/251/23 108/257/23 95/258/23
f 87/238/23 92/240/23 85/242/23
f 103/255/23 94/252/23 104/256/23
f 80/231/23 82/259/23 83/232/23
f 83/232/23 78/244/23 79/234/23
f 84/235/23 82/259/23 80/231/23
f 91/237/23 86/260/23 87/238/23
f 92/240/23 90/243/23 88/241/23
f 89/239/23 88/241/23 90/243/23
f 77/236/23 79/234/23 78/244/23
f 97/245/23 106/254/23 107/246/23
f 99/248/23 98/261/23 100/249/23
f 93/251/23 95/258/23 94/252/23
f 97/245/23 98/261/23 99/248/23
f 96/247/23 107/246/23 103/255/23
f 108/257/23 101/262/23 105/250/23
f 93/251/23 101/262/23 108/257/23
f 87/238/23 86/260/23 92/240/23
f 103/255/23 102/253/23 94/252/23
